<?xml version="1.0" encoding="UTF-8"?>
<svg version="1.1" xmlns="http://www.w3.org/2000/svg" width="512" height="512">
<path d="M0 0 C34.32 0 68.64 0 104 0 C104 16.83 104 33.66 104 51 C120.83 51 137.66 51 155 51 C155 68.16 155 85.32 155 103 C171.5 103 188 103 205 103 C205 85.84 205 68.68 205 51 C221.83 51 238.66 51 256 51 C256 34.17 256 17.34 256 0 C290.32 0 324.64 0 360 0 C360 16.83 360 33.66 360 51 C376.83 51 393.66 51 411 51 C411 118.98 411 186.96 411 257 C394.17 257 377.34 257 360 257 C360 273.83 360 290.66 360 308 C342.84 308 325.68 308 308 308 C308 324.83 308 341.66 308 359 C291.17 359 274.34 359 257 359 C257 376.16 257 393.32 257 411 C240.17 411 223.34 411 206 411 C206 427.83 206 444.66 206 462 C188.84 462 171.68 462 154 462 C154 445.17 154 428.34 154 411 C137.17 411 120.34 411 103 411 C103 393.84 103 376.68 103 359 C86.17 359 69.34 359 52 359 C52 342.17 52 325.34 52 308 C34.84 308 17.68 308 0 308 C0 291.17 0 274.34 0 257 C-16.83 257 -33.66 257 -51 257 C-51 189.02 -51 121.04 -51 51 C-34.17 51 -17.34 51 0 51 C0 34.17 0 17.34 0 0 Z M1 52 C1 119.32 1 186.64 1 256 C17.83 256 34.66 256 52 256 C52 272.83 52 289.66 52 307 C69.16 307 86.32 307 104 307 C104 324.16 104 341.32 104 359 C120.83 359 137.66 359 155 359 C155 375.83 155 392.66 155 410 C171.5 410 188 410 205 410 C205 393.17 205 376.34 205 359 C221.83 359 238.66 359 256 359 C256 341.84 256 324.68 256 307 C273.16 307 290.32 307 308 307 C308 290.17 308 273.34 308 256 C324.83 256 341.66 256 359 256 C359 188.68 359 121.36 359 52 C325.34 52 291.68 52 257 52 C257 68.83 257 85.66 257 103 C240.17 103 223.34 103 206 103 C206 120.16 206 137.32 206 155 C188.84 155 171.68 155 154 155 C154 137.84 154 120.68 154 103 C137.17 103 120.34 103 103 103 C103 86.17 103 69.34 103 52 C69.34 52 35.68 52 1 52 Z " fill="#000000" transform="translate(76,25)"/>
<path d="M0 0 C17.16 0 34.32 0 52 0 C52 17.16 52 34.32 52 52 C34.84 52 17.68 52 0 52 C0 34.84 0 17.68 0 0 Z " fill="#000000" transform="translate(332,179)"/>
</svg>
