<?xml version="1.0" encoding="UTF-8"?>
<svg version="1.1" xmlns="http://www.w3.org/2000/svg" width="512" height="512">
<path d="M0 0 C51.15 0 102.3 0 155 0 C155 16.83 155 33.66 155 51 C171.83 51 188.66 51 206 51 C206 68.16 206 85.32 206 103 C188.84 103 171.68 103 154 103 C154 86.17 154 69.34 154 52 C103.51 52 53.02 52 1 52 C1 85.33 1 118.66 1 153 C85.48 153 169.96 153 257 153 C257 254.97 257 356.94 257 462 C138.53 462 20.06 462 -102 462 C-102 360.03 -102 258.06 -102 153 C-85.17 153 -68.34 153 -51 153 C-51 119.34 -51 85.68 -51 51 C-34.17 51 -17.34 51 0 51 C0 34.17 0 17.34 0 0 Z M-50 206 C-50 272.99 -50 339.98 -50 409 C34.15 409 118.3 409 205 409 C205 342.01 205 275.02 205 206 C120.85 206 36.7 206 -50 206 Z " fill="#000000" transform="translate(181,25)"/>
<path d="M0 0 C17.16 0 34.32 0 52 0 C52 33.99 52 67.98 52 103 C34.84 103 17.68 103 0 103 C0 69.01 0 35.02 0 0 Z " fill="#000000" transform="translate(232,281)"/>
</svg>
