<?xml version="1.0" encoding="UTF-8"?>
<svg version="1.1" xmlns="http://www.w3.org/2000/svg" width="512" height="512">
<path d="M0 0 C84.81 0 169.62 0 257 0 C257 17.16 257 34.32 257 52 C273.83 52 290.66 52 308 52 C308 170.47 308 288.94 308 411 C291.17 411 274.34 411 257 411 C257 427.83 257 444.66 257 462 C172.19 462 87.38 462 0 462 C0 445.17 0 428.34 0 411 C-16.83 411 -33.66 411 -51 411 C-51 292.2 -51 173.4 -51 51 C-34.17 51 -17.34 51 0 51 C0 34.17 0 17.34 0 0 Z M1 52 C1 170.14 1 288.28 1 410 C85.15 410 169.3 410 256 410 C256 291.86 256 173.72 256 52 C171.85 52 87.7 52 1 52 Z " fill="#000000" transform="translate(128,25)"/>
<path d="M0 0 C51.15 0 102.3 0 155 0 C155 17.49 155 34.98 155 53 C103.85 53 52.7 53 0 53 C0 35.51 0 18.02 0 0 Z " fill="#000000" transform="translate(179,332)"/>
<path d="M0 0 C51.15 0 102.3 0 155 0 C155 17.16 155 34.32 155 52 C103.85 52 52.7 52 0 52 C0 34.84 0 17.68 0 0 Z " fill="#000000" transform="translate(179,230)"/>
<path d="M0 0 C51.15 0 102.3 0 155 0 C155 17.16 155 34.32 155 52 C103.85 52 52.7 52 0 52 C0 34.84 0 17.68 0 0 Z " fill="#000000" transform="translate(179,128)"/>
</svg>
