<?xml version="1.0" encoding="UTF-8"?>
<svg version="1.1" xmlns="http://www.w3.org/2000/svg" width="512" height="512">
<path d="M0 0 C51.15 0 102.3 0 155 0 C155 51.15 155 102.3 155 155 C138.17 155 121.34 155 104 155 C104 171.83 104 188.66 104 206 C86.84 206 69.68 206 52 206 C52 222.83 52 239.66 52 257 C35.17 257 18.34 257 1 257 C1 273.83 1 290.66 1 308 C-15.83 308 -32.66 308 -50 308 C-50 324.83 -50 341.66 -50 359 C-66.83 359 -83.66 359 -101 359 C-101 375.83 -101 392.66 -101 410 C-84.17 410 -67.34 410 -50 410 C-50 427.16 -50 444.32 -50 462 C-67.16 462 -84.32 462 -102 462 C-102 445.17 -102 428.34 -102 411 C-118.83 411 -135.66 411 -153 411 C-153 393.84 -153 376.68 -153 359 C-169.83 359 -186.66 359 -204 359 C-204 376.16 -204 393.32 -204 411 C-220.83 411 -237.66 411 -255 411 C-255 427.83 -255 444.66 -255 462 C-272.16 462 -289.32 462 -307 462 C-307 444.84 -307 427.68 -307 410 C-290.17 410 -273.34 410 -256 410 C-256 393.17 -256 376.34 -256 359 C-239.17 359 -222.34 359 -205 359 C-205 342.17 -205 325.34 -205 308 C-221.83 308 -238.66 308 -256 308 C-256 291.17 -256 274.34 -256 257 C-272.83 257 -289.66 257 -307 257 C-307 239.84 -307 222.68 -307 205 C-289.84 205 -272.68 205 -255 205 C-255 221.83 -255 238.66 -255 256 C-238.5 256 -222 256 -205 256 C-205 239.17 -205 222.34 -205 205 C-187.84 205 -170.68 205 -153 205 C-153 188.17 -153 171.34 -153 154 C-136.17 154 -119.34 154 -102 154 C-102 137.17 -102 120.34 -102 103 C-85.17 103 -68.34 103 -51 103 C-51 85.84 -51 68.68 -51 51 C-34.17 51 -17.34 51 0 51 C0 34.17 0 17.34 0 0 Z M1 52 C1 68.83 1 85.66 1 103 C17.83 103 34.66 103 52 103 C52 119.83 52 136.66 52 154 C68.83 154 85.66 154 103 154 C103 120.34 103 86.68 103 52 C69.34 52 35.68 52 1 52 Z M-50 103 C-50 120.16 -50 137.32 -50 155 C-66.83 155 -83.66 155 -101 155 C-101 171.83 -101 188.66 -101 206 C-117.83 206 -134.66 206 -152 206 C-152 222.83 -152 239.66 -152 257 C-169.16 257 -186.32 257 -204 257 C-204 273.5 -204 290 -204 307 C-186.84 307 -169.68 307 -152 307 C-152 324.16 -152 341.32 -152 359 C-135.5 359 -119 359 -102 359 C-102 341.84 -102 324.68 -102 307 C-85.17 307 -68.34 307 -51 307 C-51 290.17 -51 273.34 -51 256 C-34.17 256 -17.34 256 0 256 C0 239.17 0 222.34 0 205 C16.83 205 33.66 205 51 205 C51 188.5 51 172 51 155 C34.17 155 17.34 155 0 155 C0 137.84 0 120.68 0 103 C-16.5 103 -33 103 -50 103 Z " fill="#000000" transform="translate(332,25)"/>
</svg>
