<?xml version="1.0" encoding="UTF-8"?>
<svg version="1.1" xmlns="http://www.w3.org/2000/svg" width="512" height="512">
<path d="M0 0 C67.65 0 135.3 0 205 0 C205 67.98 205 135.96 205 206 C188.17 206 171.34 206 154 206 C154 239.66 154 273.32 154 308 C137.17 308 120.34 308 103 308 C103 324.83 103 341.66 103 359 C86.17 359 69.34 359 52 359 C52 376.16 52 393.32 52 411 C0.85 411 -50.3 411 -103 411 C-103 393.84 -103 376.68 -103 359 C-119.83 359 -136.66 359 -154 359 C-154 376.16 -154 393.32 -154 411 C-170.5 411 -187 411 -204 411 C-204 427.83 -204 444.66 -204 462 C-221.16 462 -238.32 462 -256 462 C-256 444.84 -256 427.68 -256 410 C-239.5 410 -223 410 -206 410 C-206.01160156 406.33003906 -206.02320313 402.66007812 -206.03515625 398.87890625 C-206.04294552 395.34106533 -206.04902302 391.80322536 -206.05493164 388.26538086 C-206.05997356 385.79857967 -206.06680691 383.33178148 -206.07543945 380.86499023 C-206.08751125 377.32795471 -206.09322956 373.79095855 -206.09765625 370.25390625 C-206.10281754 369.14350479 -206.10797882 368.03310333 -206.11329651 366.88905334 C-206.11337204 365.86807053 -206.11344757 364.84708771 -206.11352539 363.79516602 C-206.115746 362.89137711 -206.11796661 361.9875882 -206.12025452 361.05641174 C-206 359 -206 359 -205 358 C-203.40389018 357.90666295 -201.80366572 357.88254628 -200.20483398 357.88647461 C-199.18385117 357.88655014 -198.16286835 357.88662567 -197.11094666 357.88670349 C-196.0005452 357.89186478 -194.89014374 357.89702606 -193.74609375 357.90234375 C-192.05021873 357.90446617 -192.05021873 357.90446617 -190.32008362 357.90663147 C-186.69252935 357.91224981 -183.06503576 357.92480542 -179.4375 357.9375 C-176.98502693 357.94251264 -174.5325529 357.94707595 -172.08007812 357.95117188 C-166.05334296 357.9613763 -160.02673978 357.98094814 -154 358 C-154 341.5 -154 325 -154 308 C-170.83 308 -187.66 308 -205 308 C-205 257.18 -205 206.36 -205 154 C-188.17 154 -171.34 154 -154 154 C-154.03960937 137.26084826 -154.03960937 137.26084826 -154.09008789 120.52172852 C-154.09300686 118.43245494 -154.09555546 116.34318081 -154.09765625 114.25390625 C-154.10277222 113.15784058 -154.10788818 112.0617749 -154.11315918 110.93249512 C-154.11334045 109.37951721 -154.11334045 109.37951721 -154.11352539 107.79516602 C-154.115746 106.89137711 -154.11796661 105.9875882 -154.12025452 105.05641174 C-154 103 -154 103 -153 102 C-151.43452952 101.90673284 -149.86487228 101.88254418 -148.29663086 101.88647461 C-147.28161499 101.88659546 -146.26659912 101.88671631 -145.2208252 101.88684082 C-144.14635132 101.89195679 -143.07187744 101.89707275 -141.96484375 101.90234375 C-140.98294067 101.90335083 -140.0010376 101.90435791 -138.98937988 101.90539551 C-135.30540812 101.91064555 -131.62145294 101.92460668 -127.9375 101.9375 C-119.708125 101.958125 -111.47875 101.97875 -103 102 C-103 85.17 -103 68.34 -103 51 C-69.01 51 -35.02 51 0 51 C0 34.17 0 17.34 0 0 Z M1 52 C1 68.83 1 85.66 1 103 C-32.99 103 -66.98 103 -102 103 C-102 120.16 -102 137.32 -102 155 C-118.83 155 -135.66 155 -153 155 C-153 205.16 -153 255.32 -153 307 C-136.5 307 -120 307 -103 307 C-103 290.17 -103 273.34 -103 256 C-86.17 256 -69.34 256 -52 256 C-52 239.17 -52 222.34 -52 205 C-35.17 205 -18.34 205 -1 205 C-1 188.17 -1 171.34 -1 154 C15.83 154 32.66 154 50 154 C50.495 128.755 50.495 128.755 51 103 C76.245 102.505 76.245 102.505 102 102 C102 119.49 102 136.98 102 155 C85.17 155 68.34 155 51 155 C51 171.83 51 188.66 51 206 C34.17 206 17.34 206 0 206 C0 222.83 0 239.66 0 257 C-16.83 257 -33.66 257 -51 257 C-51 273.83 -51 290.66 -51 308 C-67.83 308 -84.66 308 -102 308 C-102 324.83 -102 341.66 -102 359 C-51.51 359 -1.02 359 51 359 C51 341.84 51 324.68 51 307 C67.83 307 84.66 307 102 307 C102 273.34 102 239.68 102 205 C118.83 205 135.66 205 153 205 C153 154.51 153 104.02 153 52 C102.84 52 52.68 52 1 52 Z " fill="#000000" transform="translate(282,25)"/>
</svg>
