<?xml version="1.0" encoding="UTF-8"?>
<svg version="1.1" xmlns="http://www.w3.org/2000/svg" width="512" height="512">
<path d="M0 0 C84.81 0 169.62 0 257 0 C257 17.16 257 34.32 257 52 C273.83 52 290.66 52 308 52 C308 68.83 308 85.66 308 103 C324.83 103 341.66 103 359 103 C359 204.64 359 306.28 359 411 C342.17 411 325.34 411 308 411 C308 427.83 308 444.66 308 462 C257.18 462 206.36 462 154 462 C154 377.19 154 292.38 154 205 C187.99 205 221.98 205 257 205 C257 221.83 257 238.66 257 256 C273.5 256 290 256 307 256 C307 205.84 307 155.68 307 104 C290.17 104 273.34 104 256 104 C256 86.84 256 69.68 256 52 C171.85 52 87.7 52 1 52 C1 69.16 1 86.32 1 104 C-15.83 104 -32.66 104 -50 104 C-50 154.16 -50 204.32 -50 256 C-33.5 256 -17 256 0 256 C0 239.17 0 222.34 0 205 C33.99 205 67.98 205 103 205 C103 289.81 103 374.62 103 462 C52.18 462 1.36 462 -51 462 C-51 445.17 -51 428.34 -51 411 C-67.83 411 -84.66 411 -102 411 C-102 309.36 -102 207.72 -102 103 C-85.17 103 -68.34 103 -51 103 C-51 86.17 -51 69.34 -51 52 C-34.17 52 -17.34 52 0 52 C0 34.84 0 17.68 0 0 Z M1 257 C1 273.83 1 290.66 1 308 C-15.83 308 -32.66 308 -50 308 C-50 324.83 -50 341.66 -50 359 C-33.17 359 -16.34 359 1 359 C1 375.83 1 392.66 1 410 C17.5 410 34 410 51 410 C51 359.51 51 309.02 51 257 C34.5 257 18 257 1 257 Z M206 257 C206 307.49 206 357.98 206 410 C222.5 410 239 410 256 410 C256 393.17 256 376.34 256 359 C272.83 359 289.66 359 307 359 C307 342.17 307 325.34 307 308 C290.17 308 273.34 308 256 308 C256 291.17 256 274.34 256 257 C239.5 257 223 257 206 257 Z " fill="#000000" transform="translate(128,25)"/>
</svg>
