<?xml version="1.0" encoding="UTF-8"?>
<svg version="1.1" xmlns="http://www.w3.org/2000/svg" width="512" height="512">
<path d="M0 0 C33.99 0 67.98 0 103 0 C103 16.83 103 33.66 103 51 C120.16 51 137.32 51 155 51 C155 84.99 155 118.98 155 154 C171.5 154 188 154 205 154 C205 120.01 205 86.02 205 51 C221.83 51 238.66 51 256 51 C256 34.17 256 17.34 256 0 C289.99 0 323.98 0 359 0 C359 34.32 359 68.64 359 104 C342.17 104 325.34 104 308 104 C308 120.83 308 137.66 308 155 C274.34 155 240.68 155 206 155 C206 188.33 206 221.66 206 256 C222.5 256 239 256 256 256 C256 239.17 256 222.34 256 205 C289.99 205 323.98 205 359 205 C359 238.99 359 272.98 359 308 C342.17 308 325.34 308 308 308 C308 325.16 308 342.32 308 360 C274.34 360 240.68 360 206 360 C206 393.66 206 427.32 206 462 C188.84 462 171.68 462 154 462 C154 428.34 154 394.68 154 360 C120.01 360 86.02 360 51 360 C51 342.84 51 325.68 51 308 C34.17 308 17.34 308 0 308 C0 274.01 0 240.02 0 205 C33.99 205 67.98 205 103 205 C103 221.83 103 238.66 103 256 C119.83 256 136.66 256 154 256 C154 222.67 154 189.34 154 155 C120.01 155 86.02 155 51 155 C51 138.17 51 121.34 51 104 C34.17 104 17.34 104 0 104 C0 69.68 0 35.36 0 0 Z M52 52 C52 68.83 52 85.66 52 103 C68.5 103 85 103 102 103 C102 86.17 102 69.34 102 52 C85.5 52 69 52 52 52 Z M257 52 C257 68.83 257 85.66 257 103 C273.5 103 290 103 307 103 C307 86.17 307 69.34 307 52 C290.5 52 274 52 257 52 Z M52 257 C52 273.5 52 290 52 307 C68.5 307 85 307 102 307 C102 290.5 102 274 102 257 C85.5 257 69 257 52 257 Z M155 257 C155 290.66 155 324.32 155 359 C171.5 359 188 359 205 359 C205 325.34 205 291.68 205 257 C188.5 257 172 257 155 257 Z M257 257 C257 273.5 257 290 257 307 C273.5 307 290 307 307 307 C307 290.5 307 274 307 257 C290.5 257 274 257 257 257 Z " fill="#000000" transform="translate(77,25)"/>
</svg>
