<?xml version="1.0" standalone="no"?>
<!DOCTYPE svg PUBLIC "-//W3C//DTD SVG 20010904//EN"
 "http://www.w3.org/TR/2001/REC-SVG-20010904/DTD/svg10.dtd">
<svg version="1.0" xmlns="http://www.w3.org/2000/svg"
 width="512.000000pt" height="512.000000pt" viewBox="0 0 512.000000 512.000000"
 preserveAspectRatio="xMidYMid meet">

<g transform="translate(0.000000,512.000000) scale(0.100000,-0.100000)"
fill="#000000" stroke="none">
<path d="M262 4608 l3 -253 258 -3 257 -2 0 -255 0 -255 255 0 255 0 0 255 0
255 -255 0 -255 0 0 255 0 255 -260 0 -260 0 2 -252z"/>
<path d="M2310 4605 l0 -255 255 0 255 0 0 255 0 255 -255 0 -255 0 0 -255z"/>
<path d="M4360 4605 l0 -255 -255 0 -255 0 0 -255 0 -255 255 0 255 0 0 255 0
255 255 0 255 0 0 255 0 255 -255 0 -255 0 0 -255z"/>
<path d="M1800 3585 l0 -255 -255 0 -255 0 0 -770 0 -770 255 0 255 0 0 -255
0 -255 765 0 765 0 0 255 0 255 260 0 260 0 -2 768 -3 767 -257 3 -258 2 0
255 0 255 -765 0 -765 0 0 -255z m1530 -1025 l0 -770 -765 0 -765 0 0 770 0
770 765 0 765 0 0 -770z"/>
<path d="M262 2558 l3 -253 255 0 255 0 3 253 2 252 -260 0 -260 0 2 -252z"/>
<path d="M4360 2555 l0 -255 255 0 255 0 0 255 0 255 -255 0 -255 0 0 -255z"/>
<path d="M770 1025 l0 -255 -252 -2 -253 -3 0 -255 0 -255 255 0 255 0 3 258
2 257 255 0 255 0 0 255 0 255 -260 0 -260 0 0 -255z"/>
<path d="M3850 1025 l0 -255 255 0 255 0 2 -257 3 -258 253 -3 252 -2 0 260 0
260 -255 0 -255 0 0 255 0 255 -255 0 -255 0 0 -255z"/>
<path d="M2315 757 c-3 -7 -4 -123 -3 -257 l3 -245 253 -3 252 -2 0 260 0 260
-250 0 c-193 0 -252 -3 -255 -13z"/>
</g>
</svg>
